<?xml version="1.0" standalone="no"?>
<!DOCTYPE svg PUBLIC "-//W3C//DTD SVG 20010904//EN"
 "http://www.w3.org/TR/2001/REC-SVG-20010904/DTD/svg10.dtd">
<svg version="1.0" xmlns="http://www.w3.org/2000/svg"
 width="3883.000000pt" height="707.000000pt" viewBox="0 0 3883.000000 707.000000"
 preserveAspectRatio="xMidYMid meet">

<g transform="translate(0.000000,707.000000) scale(0.100000,-0.100000)"
fill="#000000" stroke="none">
<path d="M12728 6643 c-16 -2 -28 -8 -28 -13 0 -5 -24 -16 -52 -26 -50 -16
-77 -28 -171 -75 -22 -10 -47 -19 -58 -19 -10 0 -19 -4 -19 -9 0 -5 -10 -13
-22 -16 -33 -10 -134 -53 -193 -81 -27 -13 -58 -24 -67 -24 -10 0 -18 -4 -18
-9 0 -5 -15 -14 -32 -21 -18 -6 -50 -20 -71 -31 -22 -10 -44 -19 -51 -19 -11
0 -25 -26 -56 -108 -24 -65 -79 -192 -96 -222 -7 -14 -19 -37 -25 -52 -6 -16
-15 -28 -21 -28 -5 0 -6 5 -3 10 3 6 10 31 15 58 4 26 17 70 28 99 22 58 19
97 -11 130 -18 20 -22 21 -46 9 -14 -7 -39 -19 -56 -26 -16 -7 -42 -19 -57
-26 -14 -8 -36 -14 -47 -14 -12 0 -21 -4 -21 -8 0 -9 -61 -37 -102 -46 -16 -4
-28 -11 -28 -16 0 -6 -7 -10 -15 -10 -8 0 -38 -11 -67 -25 -28 -14 -60 -25
-70 -25 -10 0 -18 -4 -18 -9 0 -5 -15 -14 -32 -20 -18 -7 -55 -23 -83 -35
-103 -48 -146 -66 -157 -66 -6 0 -19 -6 -27 -14 -9 -7 -40 -21 -68 -32 -29
-10 -53 -22 -53 -26 0 -4 -11 -8 -24 -8 -14 0 -27 -4 -30 -8 -3 -5 -45 -25
-93 -46 -121 -52 -157 -68 -238 -106 -38 -18 -83 -38 -100 -45 -70 -30 -132
-58 -168 -76 -22 -10 -47 -19 -56 -19 -16 0 -51 -29 -51 -42 0 -3 37 -8 83
-11 45 -4 107 -11 137 -16 30 -6 102 -16 160 -22 58 -6 132 -17 165 -25 33 -7
86 -14 117 -14 58 0 108 -13 119 -32 4 -6 1 -22 -7 -37 -26 -52 -54 -121 -54
-133 0 -7 -8 -27 -19 -44 -10 -17 -22 -41 -26 -55 -4 -13 -16 -42 -25 -64 -10
-22 -32 -76 -50 -120 -18 -44 -38 -91 -45 -105 -7 -14 -23 -52 -36 -85 -12
-33 -30 -78 -39 -100 -10 -22 -28 -65 -40 -95 -12 -30 -32 -77 -45 -105 -13
-27 -28 -67 -35 -87 -6 -21 -16 -40 -21 -43 -5 -4 -9 -14 -9 -23 0 -9 -11 -39
-25 -67 -13 -27 -25 -57 -25 -66 0 -9 -7 -22 -15 -29 -8 -7 -15 -22 -15 -34 0
-12 -6 -30 -13 -41 -7 -11 -19 -36 -27 -55 -7 -19 -21 -53 -30 -75 -30 -66
-60 -147 -60 -159 0 -6 -9 -22 -20 -36 -11 -14 -20 -32 -20 -41 0 -8 -11 -39
-25 -67 -14 -29 -25 -58 -25 -65 0 -7 -4 -17 -8 -22 -5 -6 -15 -26 -22 -45 -7
-19 -21 -53 -31 -75 -18 -41 -67 -160 -121 -295 -16 -41 -38 -91 -49 -111 -10
-20 -19 -42 -19 -48 0 -25 -107 -251 -119 -251 -5 0 -12 26 -16 58 -4 31 -11
65 -16 74 -5 9 -13 43 -19 75 -5 32 -14 78 -19 103 -6 25 -15 71 -21 102 -5
31 -15 69 -20 84 -6 15 -19 71 -30 125 -10 54 -23 107 -29 118 -6 11 -11 35
-11 54 0 19 -6 52 -14 73 -7 22 -19 73 -26 114 -6 41 -16 86 -22 100 -6 14
-14 50 -19 80 -4 30 -15 84 -24 120 -10 36 -20 90 -24 120 -3 30 -10 60 -14
66 -8 14 -56 256 -66 339 -5 34 -13 70 -18 80 -6 11 -14 45 -18 75 -4 30 -16
79 -27 110 -11 30 -22 66 -24 80 -3 14 -9 34 -14 45 -5 11 -17 43 -26 70 -10
28 -32 75 -47 105 -16 30 -36 69 -45 85 -9 17 -22 36 -29 43 -7 7 -13 18 -13
23 0 14 -29 48 -121 139 -93 93 -123 118 -160 138 -13 7 -42 24 -64 37 -22 14
-51 29 -65 35 -14 6 -42 20 -63 31 -21 10 -44 19 -52 19 -8 0 -29 6 -47 14
-162 71 -655 117 -907 85 -129 -16 -324 -71 -396 -111 -11 -7 -33 -18 -50 -27
-42 -21 -49 -27 -132 -110 -40 -41 -73 -79 -73 -86 0 -7 -7 -18 -15 -25 -9 -7
-30 -43 -46 -79 -17 -36 -35 -74 -40 -83 -14 -27 -11 -56 7 -66 18 -10 11 -32
-9 -32 -7 -1 -22 -22 -34 -48 -61 -130 -73 -161 -73 -179 0 -12 -6 -23 -13
-26 -7 -3 -22 -32 -32 -66 -11 -34 -23 -61 -27 -61 -5 0 -8 -9 -8 -20 0 -11
-11 -41 -24 -67 -49 -98 -116 -258 -116 -277 0 -8 -7 -19 -15 -26 -8 -7 -15
-20 -15 -30 0 -9 -11 -38 -25 -64 -14 -26 -25 -56 -25 -66 0 -10 -4 -21 -9
-24 -5 -3 -23 -43 -41 -88 -33 -85 -49 -122 -94 -218 -14 -30 -26 -62 -26 -71
0 -8 -9 -33 -19 -55 -11 -22 -23 -54 -27 -70 -4 -16 -13 -38 -20 -49 -8 -11
-14 -27 -14 -35 0 -9 -11 -40 -25 -68 -14 -29 -25 -59 -25 -67 0 -8 -9 -29
-20 -47 -26 -42 -27 -73 -2 -62 31 13 93 17 105 5 6 -6 17 -11 24 -11 17 0 62
-47 74 -77 14 -37 11 -101 -6 -137 -8 -17 -34 -44 -58 -60 -37 -24 -49 -27
-96 -22 -47 4 -59 10 -92 45 -20 23 -41 41 -46 41 -8 0 -53 -97 -53 -115 0 -6
-9 -28 -20 -50 -30 -59 -28 -63 44 -62 44 1 72 -5 90 -16 35 -23 66 -22 66 2
0 19 73 100 120 134 37 26 151 24 199 -5 78 -47 131 -126 131 -197 l0 -28 88
-5 c79 -5 89 -4 112 17 48 42 97 57 168 53 39 -2 67 -9 70 -16 2 -7 11 -12 20
-12 10 0 23 -9 30 -20 15 -25 32 -26 32 -1 0 10 10 29 23 43 38 43 46 62 31
76 -7 6 -20 12 -29 12 -8 0 -15 3 -15 8 0 11 -59 35 -74 29 -7 -3 -26 3 -42
14 -16 10 -36 19 -45 19 -9 0 -19 7 -23 15 -12 33 -33 15 -38 -33 -8 -81 -65
-132 -146 -132 -45 0 -112 40 -136 80 -25 44 -21 113 10 150 41 48 79 63 141
56 l53 -6 19 42 c10 24 24 58 30 76 28 82 35 99 52 133 11 20 19 43 19 51 0 8
11 38 25 66 14 29 25 60 25 70 0 10 4 22 9 28 9 9 57 128 68 169 3 11 12 36
21 55 16 34 32 75 66 170 9 25 23 59 31 77 8 17 15 36 15 43 0 7 7 24 15 38
15 28 38 87 59 157 7 22 22 60 34 85 12 25 22 53 22 64 0 10 9 35 19 55 22 42
79 209 90 266 5 22 8 60 7 85 -2 48 -1 47 -69 49 -34 1 -38 3 -32 23 6 17 4
20 -10 14 -10 -3 -24 -1 -32 6 -9 7 -25 12 -36 13 -14 0 -23 9 -28 25 -4 14
-7 19 -8 13 -2 -21 -28 -15 -34 7 -3 13 -10 18 -21 14 -9 -3 -24 -3 -33 0 -15
6 -15 8 -3 16 8 5 11 12 7 17 -4 4 -16 2 -26 -4 -14 -9 -20 -7 -29 8 -7 11
-21 18 -34 16 -17 -1 -24 5 -29 28 -6 28 -7 29 -14 8 -9 -28 -25 -30 -25 -3 0
14 -7 20 -24 20 -13 0 -27 8 -30 17 -5 11 -10 13 -17 6 -5 -5 -21 -8 -35 -5
-28 5 -33 41 -10 69 8 10 31 38 51 63 21 25 58 62 84 83 25 21 51 44 56 51 6
7 49 31 98 54 76 36 96 42 155 42 108 0 195 -41 293 -139 47 -48 139 -171 139
-188 0 -3 10 -19 22 -35 12 -17 32 -54 45 -82 13 -28 33 -69 44 -91 10 -22 19
-44 19 -50 1 -5 9 -28 20 -50 11 -22 19 -46 20 -53 0 -7 8 -29 19 -50 10 -20
24 -62 31 -92 7 -30 17 -60 21 -66 5 -6 13 -31 19 -55 21 -101 56 -219 68
-231 6 -6 12 -21 12 -32 0 -12 7 -34 15 -50 8 -15 22 -69 31 -120 8 -50 20
-102 26 -116 6 -14 14 -52 19 -85 8 -54 41 -235 69 -375 7 -30 21 -93 32 -140
11 -47 24 -107 28 -135 4 -27 14 -77 23 -110 33 -131 57 -241 57 -268 0 -15 6
-40 14 -55 7 -15 16 -45 20 -67 11 -69 28 -139 38 -160 5 -12 13 -45 18 -75 5
-30 14 -75 20 -100 5 -25 15 -74 21 -110 6 -36 17 -77 25 -92 8 -15 14 -42 14
-61 0 -18 4 -37 8 -42 5 -6 15 -30 22 -55 7 -25 24 -67 36 -95 13 -27 28 -61
33 -75 6 -14 15 -32 19 -40 8 -14 17 -30 46 -85 19 -36 103 -139 143 -175 65
-60 141 -120 152 -120 6 0 11 -4 11 -8 0 -4 19 -18 43 -30 23 -12 49 -26 57
-31 26 -16 128 -61 140 -61 6 0 21 -6 33 -14 12 -8 47 -19 77 -26 30 -7 73
-18 95 -26 23 -8 55 -14 73 -14 l32 0 0 55 c0 40 -4 55 -14 55 -9 0 -12 8 -8
27 4 21 2 25 -11 20 -13 -5 -16 -1 -13 23 2 17 -3 38 -10 47 -7 10 -14 30 -14
46 0 15 -4 27 -10 27 -5 0 -10 12 -10 26 0 38 14 22 59 -69 23 -45 55 -104 71
-132 16 -27 39 -67 50 -87 11 -21 25 -38 30 -38 6 0 10 -7 10 -15 0 -8 12 -18
26 -21 44 -11 257 4 297 21 20 8 50 15 67 15 17 0 38 4 48 9 9 5 44 17 77 26
33 10 78 25 100 35 22 11 52 22 67 25 15 4 32 13 39 21 6 8 17 14 23 14 15 -1
136 63 136 71 0 4 -25 10 -55 14 -69 8 -72 25 -4 25 89 0 227 82 305 182 14
19 56 102 89 178 16 36 45 101 65 145 21 44 49 109 64 145 15 36 31 72 37 80
5 8 12 22 15 30 4 8 18 42 31 75 14 33 29 67 34 75 5 8 14 26 19 40 6 14 19
42 30 63 11 22 20 47 20 57 0 11 4 21 9 24 4 3 16 27 26 53 9 26 26 66 36 88
10 22 30 72 44 110 14 39 32 84 40 100 7 17 18 44 25 60 7 17 19 42 26 57 8
14 14 34 14 45 0 10 7 27 15 37 8 11 21 43 30 73 9 29 20 53 25 53 6 0 10 9
10 21 0 11 6 33 14 47 8 15 21 45 30 67 8 22 31 78 50 125 20 46 36 92 36 101
0 9 6 22 14 28 8 7 18 25 21 41 4 16 15 47 26 69 10 22 19 44 19 50 0 5 11 32
25 59 14 28 28 64 31 81 4 17 13 36 20 42 8 6 14 20 14 30 0 17 19 64 61 154
11 22 19 45 19 51 0 5 11 34 25 62 14 29 25 58 25 66 0 8 4 17 10 21 5 3 17
31 26 63 10 31 24 64 31 73 7 8 13 27 13 41 0 14 6 31 13 37 8 6 19 30 26 53
7 23 21 58 32 77 10 20 19 43 19 53 0 9 5 20 10 23 6 3 10 15 10 26 0 10 5 19
10 19 6 0 10 10 10 23 0 12 6 31 14 42 7 11 21 43 30 71 9 28 23 60 31 70 8
10 15 28 15 39 0 12 4 25 9 30 4 6 17 33 27 60 9 28 24 59 31 70 7 11 13 27
13 35 0 9 9 35 20 58 11 23 23 56 27 72 3 17 9 30 14 30 4 0 16 26 25 58 10
31 24 64 31 73 7 8 13 24 13 35 0 11 6 28 13 39 7 11 19 40 27 65 7 25 20 52
27 61 7 8 13 22 13 31 0 14 18 58 41 100 5 10 9 27 9 37 0 11 4 22 9 25 4 3
19 34 31 68 13 35 27 67 32 72 4 6 8 22 8 37 0 15 6 29 13 32 7 2 19 29 26 58
8 30 22 65 32 79 9 14 20 40 23 58 5 27 3 32 -14 32 -19 0 -20 7 -20 109 0 84
3 111 15 121 20 16 19 46 -1 54 -9 3 -16 5 -17 5 -1 -1 -14 -4 -29 -6z m-6088
-3239 c59 -50 73 -104 41 -158 -42 -73 -137 -95 -198 -46 -62 49 -68 141 -13
192 36 33 45 36 97 37 31 1 49 -6 73 -25z m2796 -1671 c-11 -11 -19 6 -11 24
8 17 8 17 12 0 3 -10 2 -21 -1 -24z m34 -64 c0 -10 -4 -19 -10 -19 -5 0 -10
12 -10 26 0 14 4 23 10 19 6 -3 10 -15 10 -26z m30 -82 c0 -34 -25 -12 -27 24
-1 32 0 33 13 15 8 -11 14 -28 14 -39z m917 -113 c-3 -3 -12 -4 -19 -1 -8 3
-5 6 6 6 11 1 17 -2 13 -5z"/>
<path d="M17630 6134 c-669 -48 -1176 -240 -1528 -579 -130 -125 -214 -236
-291 -384 -105 -206 -148 -371 -158 -606 -16 -406 87 -709 328 -960 181 -188
439 -333 799 -449 191 -62 351 -102 725 -181 452 -96 535 -119 668 -188 92
-47 141 -99 157 -166 33 -137 -66 -240 -270 -286 -113 -25 -476 -32 -650 -12
-398 47 -790 163 -1149 343 l-163 82 -21 -47 c-11 -25 -129 -292 -262 -593
-241 -544 -242 -547 -221 -562 50 -32 269 -137 376 -179 344 -135 788 -238
1225 -283 237 -25 740 -25 950 -1 450 53 807 174 1114 378 428 284 667 697
688 1184 13 298 -51 555 -189 767 -210 319 -603 546 -1207 698 -47 12 -261 57
-476 100 -403 81 -542 118 -656 175 -111 56 -170 146 -154 234 25 132 147 219
362 256 101 18 387 20 531 4 291 -31 620 -128 956 -281 71 -32 133 -55 137
-51 17 17 488 1168 482 1174 -18 17 -240 123 -345 164 -287 112 -639 192
-1033 235 -101 11 -623 21 -725 14z"/>
<path d="M12673 2708 c3 -660 5 -740 21 -808 99 -417 399 -684 861 -766 121
-21 410 -24 530 -5 481 75 782 336 888 770 20 82 21 117 24 814 l4 727 -440 0
-440 0 -3 -692 c-4 -769 -2 -749 -71 -840 -62 -82 -193 -116 -301 -79 -46 16
-111 72 -133 115 -46 88 -46 96 -50 814 l-4 682 -445 0 -445 0 4 -732z"/>
<path d="M20350 3110 l0 -330 325 0 325 0 0 -805 0 -805 450 0 450 0 0 805 0
805 320 0 320 0 0 330 0 330 -1095 0 -1095 0 0 -330z"/>
<path d="M23631 3418 c-13 -34 -972 -2210 -982 -2230 -9 -17 14 -18 419 -18
l429 0 68 175 68 175 445 -2 445 -3 66 -173 66 -172 432 0 432 0 -27 63 c-15
34 -239 544 -498 1132 l-471 1070 -442 3 -441 2 -9 -22z m557 -1028 c50 -129
93 -243 97 -252 7 -17 -7 -18 -205 -18 -166 0 -211 3 -207 13 3 6 46 118 97
247 50 129 96 246 102 260 10 24 10 24 18 5 4 -11 48 -126 98 -255z"/>
<path d="M25960 2306 l0 -1136 445 0 445 0 0 270 0 270 43 0 42 -1 180 -266
c99 -146 184 -267 190 -269 5 -2 220 -3 477 -2 l466 3 -233 339 -234 339 67
44 c160 105 271 256 324 440 19 66 23 102 23 233 0 132 -4 167 -23 234 -79
273 -282 471 -587 571 -177 57 -182 58 -932 62 l-693 4 0 -1135z m1231 451
c111 -54 149 -180 89 -296 -42 -83 -117 -111 -302 -111 l-128 0 0 213 c0 118
3 217 8 221 4 5 68 6 143 4 122 -4 142 -7 190 -31z"/>
<path d="M28600 3110 l0 -330 325 0 325 0 0 -805 0 -805 450 0 450 0 0 805 0
805 325 0 325 0 0 330 0 330 -1100 0 -1100 0 0 -330z"/>
<path d="M31250 3110 l0 -330 460 -2 459 -3 -474 -532 -475 -532 0 -271 0
-270 1085 0 1085 0 0 330 0 330 -509 2 -509 3 479 537 479 537 0 266 0 265
-1040 0 -1040 0 0 -330z"/>
<path d="M6292 2840 c-52 -37 -70 -89 -52 -144 6 -20 16 -36 21 -36 5 0 9 -7
9 -15 0 -19 87 -45 126 -37 53 10 91 48 99 98 10 67 -8 109 -59 139 -56 33
-94 32 -144 -5z"/>
<path d="M7256 2752 c-23 -16 -45 -43 -54 -65 -13 -34 -13 -45 0 -85 31 -102
163 -122 230 -37 30 39 32 118 3 156 -22 29 -83 59 -118 59 -12 -1 -39 -13
-61 -28z"/>
<path d="M5929 2713 c-26 -10 -43 -27 -58 -57 -62 -124 21 -232 161 -210 96
16 139 139 77 223 -42 57 -109 73 -180 44z"/>
<path d="M7040 2590 c0 -5 5 -10 11 -10 5 0 7 5 4 10 -3 6 -8 10 -11 10 -2 0
-4 -4 -4 -10z"/>
<path d="M6508 2497 c-64 -29 -88 -82 -69 -155 21 -78 114 -115 186 -76 19 10
35 22 35 26 0 3 7 14 16 22 26 26 30 83 7 114 -11 15 -22 35 -26 45 -3 9 -15
17 -26 17 -11 0 -23 5 -26 10 -8 13 -63 11 -97 -3z"/>
<path d="M6850 2471 c0 -5 5 -13 10 -16 6 -3 10 -2 10 4 0 5 -4 13 -10 16 -5
3 -10 2 -10 -4z"/>
<path d="M6980 2440 c-13 -8 -13 -10 2 -10 9 0 20 5 23 10 8 13 -5 13 -25 0z"/>
<path d="M6110 2324 c-77 -43 -101 -130 -56 -202 28 -45 40 -54 88 -70 49 -17
108 0 151 42 29 29 31 36 31 103 0 79 -8 91 -86 133 -49 26 -73 25 -128 -6z"/>
<path d="M5733 2163 c-29 -14 -53 -32 -53 -40 0 -7 -4 -13 -10 -13 -5 0 -16
-22 -24 -50 -13 -44 -13 -55 0 -94 15 -43 26 -58 73 -96 36 -30 146 -28 181 3
57 51 70 77 70 141 0 77 -27 119 -97 152 -61 29 -77 29 -140 -3z"/>
<path d="M6242 1878 c-7 -7 -12 -37 -12 -72 1 -53 5 -66 30 -96 28 -32 35 -35
98 -38 62 -4 71 -2 99 22 37 31 50 86 21 86 -10 0 -18 6 -18 14 0 8 -16 16
-42 19 -23 3 -47 13 -54 21 -6 9 -15 16 -19 16 -5 0 -16 6 -24 14 -24 21 -64
29 -79 14z"/>
<path d="M5961 1799 c-77 -31 -93 -43 -117 -92 -29 -60 -30 -92 -6 -143 38
-85 96 -114 197 -99 83 13 135 95 121 193 -8 61 -40 100 -103 128 -60 27 -59
27 -92 13z"/>
<path d="M6826 1608 c-6 -28 -4 -44 10 -67 10 -17 22 -31 27 -31 5 0 23 -7 41
-15 30 -14 35 -14 76 8 45 23 63 47 37 47 -8 0 -26 9 -40 20 -18 15 -27 17
-30 8 -4 -10 -6 -10 -6 0 -1 6 -6 12 -12 12 -7 0 -21 10 -32 23 -13 15 -21 18
-24 10 -7 -19 -31 -16 -36 5 -2 10 -7 2 -11 -20z"/>
<path d="M5542 1623 c-13 -2 -26 -11 -29 -19 -3 -8 -11 -14 -17 -14 -13 0 -56
-45 -56 -58 0 -15 -25 -62 -32 -62 -5 0 -8 -11 -8 -25 0 -14 5 -25 10 -25 6 0
10 -6 10 -14 0 -24 44 -97 65 -108 11 -6 25 -17 32 -23 17 -18 91 -26 134 -16
48 11 104 54 119 91 7 17 16 30 21 30 5 0 9 23 9 50 0 65 -40 142 -90 171 -35
21 -121 33 -168 22z"/>
<path d="M6477 1541 c-117 -77 -67 -261 71 -261 40 0 104 23 110 39 3 9 12 21
21 27 24 19 19 125 -8 160 -43 54 -139 72 -194 35z"/>
<path d="M6137 1403 c-92 -24 -143 -117 -117 -214 13 -48 69 -109 101 -109 10
0 19 -4 19 -10 0 -5 18 -10 40 -10 22 0 40 5 40 10 0 6 6 10 13 10 21 0 78 46
94 77 20 37 20 121 0 158 -35 69 -117 107 -190 88z"/>
<path d="M27140 937 c-33 -17 -50 -53 -50 -109 0 -41 -3 -48 -20 -48 -17 0
-20 -7 -20 -45 0 -38 3 -45 20 -45 19 0 20 -7 20 -170 l0 -170 55 0 55 0 0
170 0 170 30 0 c29 0 30 2 30 45 0 44 -1 45 -31 45 -28 0 -30 2 -27 33 3 28 7
32 36 35 30 3 32 5 32 43 0 33 -4 41 -26 49 -34 13 -74 12 -104 -3z"/>
<path d="M31890 930 c-58 -58 20 -142 88 -94 15 10 22 25 22 49 0 58 -69 86
-110 45z"/>
<path d="M25660 860 l0 -80 -30 0 c-29 0 -30 -2 -30 -45 0 -43 1 -45 30 -45
l30 0 0 -170 0 -170 50 0 50 0 0 170 0 170 35 0 c35 0 35 0 35 45 0 45 0 45
-35 45 l-35 0 0 80 0 80 -50 0 -50 0 0 -80z"/>
<path d="M31510 860 l0 -80 -30 0 c-29 0 -30 -2 -30 -45 0 -43 1 -45 30 -45
l30 0 0 -170 0 -170 50 0 50 0 0 170 0 170 35 0 c35 0 35 0 35 45 0 45 0 45
-35 45 l-35 0 0 80 0 80 -50 0 -50 0 0 -80z"/>
<path d="M22891 898 c-5 -13 -53 -135 -106 -273 -53 -137 -99 -256 -102 -263
-4 -10 8 -12 53 -10 l58 3 22 55 22 55 118 3 119 3 21 -58 20 -58 58 -3 c53
-3 58 -1 52 15 -4 10 -53 138 -109 285 l-102 268 -58 0 c-50 0 -59 -3 -66 -22z
m109 -237 l29 -81 -73 0 -74 0 37 94 c22 60 39 90 43 82 4 -7 21 -50 38 -95z"/>
<path d="M27890 635 l0 -285 50 0 50 0 0 180 c0 99 3 180 8 180 4 0 60 -81
124 -180 l118 -180 55 0 55 0 0 285 0 285 -55 0 -55 0 -2 -186 -3 -187 -120
186 -120 186 -52 0 -53 1 0 -285z"/>
<path d="M24039 781 c-14 -5 -38 -16 -52 -26 -26 -17 -27 -17 -27 4 0 19 -6
21 -55 21 l-55 0 0 -295 0 -295 55 0 55 0 0 101 0 101 33 -21 c73 -45 163 -36
226 23 102 95 93 288 -18 361 -41 28 -119 40 -162 26z m105 -121 c59 -52 57
-142 -5 -195 -64 -53 -160 -17 -179 68 -27 121 95 205 184 127z"/>
<path d="M24657 776 c-81 -30 -130 -108 -129 -209 0 -75 18 -122 66 -170 60
-60 170 -73 229 -26 32 24 37 24 37 -1 0 -17 7 -20 50 -20 l50 0 0 215 0 215
-50 0 c-43 0 -50 -3 -50 -20 0 -25 -4 -25 -38 0 -36 27 -116 34 -165 16z m169
-120 c29 -29 34 -41 34 -79 0 -63 -14 -94 -52 -117 -61 -37 -133 -17 -163 46
-19 41 -19 77 1 120 20 42 56 63 108 64 30 0 45 -7 72 -34z"/>
<path d="M25345 778 c-11 -6 -28 -20 -37 -32 l-18 -21 0 28 c0 25 -3 27 -45
27 l-45 0 0 -215 0 -215 49 0 48 0 5 138 c5 160 17 197 62 197 25 1 31 7 43
40 7 22 11 45 9 52 -6 16 -44 16 -71 1z"/>
<path d="M26567 777 c-163 -51 -205 -269 -73 -385 106 -93 273 -55 342 78 26
50 24 143 -4 197 -28 53 -83 98 -138 112 -52 13 -78 13 -127 -2z m123 -102
c16 -9 36 -29 45 -45 32 -62 11 -146 -45 -175 -82 -42 -170 14 -170 110 0 96
88 152 170 110z"/>
<path d="M29446 780 c-16 -5 -39 -19 -52 -31 l-24 -22 0 26 c0 26 -2 27 -55
27 l-55 0 0 -215 0 -215 55 0 55 0 0 128 c0 101 4 134 18 162 19 38 55 56 93
47 44 -11 52 -41 57 -194 l5 -143 48 0 49 0 0 114 c0 139 5 169 38 201 30 30
71 32 103 6 23 -18 24 -26 27 -170 l4 -151 49 0 49 0 0 170 c0 130 -3 178 -14
199 -41 78 -160 92 -233 28 l-34 -30 -32 31 c-36 35 -99 48 -151 32z"/>
<path d="M30296 776 c-139 -52 -188 -248 -88 -358 53 -58 85 -72 172 -72 83 0
117 13 164 62 l28 30 -42 22 -43 22 -40 -22 c-56 -32 -121 -24 -159 19 -52 59
-47 61 142 61 l170 0 0 38 c0 40 -30 115 -58 145 -49 54 -172 80 -246 53z
m154 -108 c62 -42 52 -48 -76 -48 l-117 0 24 26 c46 50 115 58 169 22z"/>
<path d="M30996 765 c-44 -23 -46 -24 -46 -5 0 18 -7 20 -55 20 l-55 0 0 -215
0 -215 55 0 55 0 0 124 c0 69 4 136 9 149 24 62 92 86 131 47 18 -18 20 -33
20 -170 l0 -150 55 0 55 0 0 169 c0 158 -1 170 -23 202 -26 40 -79 69 -123 69
-17 0 -52 -11 -78 -25z"/>
<path d="M32377 774 c-65 -20 -121 -78 -142 -146 -51 -173 101 -321 288 -279
51 11 127 53 127 70 0 5 -17 20 -38 33 -37 25 -37 25 -72 7 -72 -39 -165 -16
-195 47 -57 120 74 230 195 165 35 -19 36 -18 80 4 l44 22 -34 32 c-62 56
-160 74 -253 45z"/>
<path d="M33027 776 c-81 -30 -130 -108 -129 -209 0 -75 18 -122 66 -170 60
-60 170 -73 229 -26 32 24 37 24 37 -1 0 -17 7 -20 50 -20 l50 0 0 215 0 215
-50 0 c-43 0 -50 -3 -50 -20 0 -25 -4 -25 -38 0 -36 27 -116 34 -165 16z m169
-120 c29 -29 34 -41 34 -79 0 -63 -14 -94 -52 -117 -61 -37 -133 -17 -163 46
-19 41 -19 77 1 120 20 42 56 63 108 64 30 0 45 -7 72 -34z"/>
<path d="M28623 625 c5 -137 9 -161 29 -197 33 -59 78 -83 158 -83 81 0 125
24 159 84 21 38 24 59 29 197 l5 154 -57 0 -56 0 0 -137 c0 -91 -5 -147 -13
-163 -15 -30 -54 -45 -90 -36 -46 11 -57 50 -57 201 l0 135 -57 0 -56 0 6
-155z"/>
<path d="M31880 565 l0 -215 55 0 55 0 0 215 0 215 -55 0 -55 0 0 -215z"/>
</g>
</svg>
